<?xml version="1.0"?><svg width="640" height="480" xmlns="http://www.w3.org/2000/svg">
 <title>beautiful swirls underline</title>
 <g>
  <title>Layer 1</title>
  <g opacity="0.8" id="layer1">
   <path d="m319.009125,288.396606c28.550507,-14.871887 43.148712,-15.053833 53.793823,-11.471039c-16.007751,4.91391 -33.940002,12.616699 -53.611328,24.011322l-0.016998,0.084839c21.194061,-11.040009 40.246094,-18.323914 56.980286,-22.808777c5.4953,2.370941 10.101959,5.534698 15.532227,7.629303c45.42157,26.938843 72.174744,12.960114 69.00354,5.182861c3.565704,-12.464447 -28.580994,-31.834076 -86.499695,-14.515442c-10.77533,-4.520508 -25.655365,-5.258484 -55.18161,11.844482l-0.000244,0.04245zm58.239471,-10.471008c53.828308,-14.119568 83.389435,0.848206 83.086823,12.437256c-0.026276,-0.038879 -0.053589,-0.078857 -0.080872,-0.117249c0.026703,0.051636 0.039948,0.104828 0.064056,0.157501c-0.033234,1.039856 -0.294586,2.049866 -0.813599,3.011261c0.491089,-0.665833 0.859894,-1.364716 1.102722,-2.089172c1.073181,7.484344 -24.220978,18.351135 -68.92038,-5.522766c-4.9487,-2.002869 -9.285034,-5.255463 -14.438751,-7.876831zm82.256409,15.48877c-0.055389,0.074554 -0.106049,0.148621 -0.164551,0.222656l-0.000427,0.08493c0.061218,-0.101074 0.109467,-0.204865 0.164978,-0.307587zm0.749542,-3.168762c-0.02829,-0.053772 -0.049835,-0.107483 -0.080658,-0.160187l-0.000214,0.039764c0.029907,0.03949 0.051971,0.080444 0.080872,0.120422z" stroke-width="1px" stroke="#000000" fill-rule="evenodd" fill="#000000" id="path2389"/>
   <path d="m319.638458,306.244537c-29.774231,16.567047 -44.996796,16.774933 -56.096008,12.790009c16.693939,-5.476288 35.395966,-14.057922 55.911255,-26.750458l0.02124,-0.09491c-22.106903,12.298767 -41.976227,20.414063 -59.42746,25.413361c-5.729614,-2.637634 -10.531631,-6.158112 -16.193741,-8.488007c-47.354385,-29.97348 -75.256592,-14.401642 -71.952255,-5.744049c-3.722717,13.877441 29.792358,35.429321 90.193481,16.127411c11.234131,5.028839 26.750519,5.844482 57.543243,-13.206146l0.000244,-0.047211zm-60.731598,11.67804c-56.134567,15.738953 -86.954987,-0.913025 -86.634903,-13.815399c0.026764,0.043152 0.055084,0.087891 0.083908,0.131042c-0.028244,-0.057465 -0.041443,-0.117004 -0.067093,-0.175537c0.035339,-1.157684 0.308197,-2.282318 0.850067,-3.352417c-0.512741,0.741089 -0.897491,1.518982 -1.150589,2.325684c-1.116699,-8.331909 25.262955,-20.438538 71.865265,6.123199c5.159805,2.227997 9.680115,5.847321 15.053345,8.763428zm-85.768021,-17.212311c0.05748,-0.083618 0.110306,-0.166138 0.170898,-0.248138l0.000473,-0.095001c-0.063339,0.112732 -0.113724,0.22876 -0.171371,0.34314zm-0.782974,3.527954c0.029297,0.059082 0.051819,0.119202 0.084213,0.178314l0.000229,-0.044586c-0.031433,-0.043701 -0.05455,-0.089478 -0.084442,-0.133728z" stroke-width="1px" stroke="#000000" fill-rule="evenodd" fill="#000000" id="path2401"/>
   <path d="m311.599731,304.96405c50.559204,17.454041 76.51889,17.885071 95.502899,13.946564c-28.39743,-5.866913 -60.177582,-14.954834 -94.996613,-28.294678l-0.028595,-0.09729c37.532715,12.956848 71.309906,21.582703 101.00592,26.970062c9.807404,-2.629944 18.045563,-6.180115 27.733582,-8.494263c81.174408,-30.136505 128.551727,-13.731628 122.794525,-4.879669c6.160706,14.318085 -51.291321,35.995178 -154.046478,15.292816c-19.229095,5.009125 -45.703552,5.627167 -97.965485,-14.394684l0.000244,-0.048859zm103.424652,12.869751c95.525177,16.978607 148.314911,0.300598 147.945038,-12.966919c-0.046875,0.044342 -0.093811,0.089752 -0.145935,0.133545c0.052185,-0.059174 0.073242,-0.120117 0.120239,-0.179321c-0.045959,-1.191071 -0.496826,-2.35025 -1.404541,-3.45871c0.862671,0.769531 1.507324,1.574554 1.928711,2.407593c2.019592,-8.548645 -42.807007,-21.369934 -122.651154,5.270142c-8.829834,2.216675 -16.588501,5.872345 -25.792358,8.793671zm146.514801,-16.471405c-0.098206,-0.086517 -0.186035,-0.171936 -0.289368,-0.257385l0.000488,-0.097687c0.108398,0.117371 0.190857,0.236725 0.288879,0.355072zm1.284302,3.638031c-0.046997,0.060272 -0.088806,0.121674 -0.146179,0.181854l0.000183,-0.045624c0.057312,-0.04483 0.09906,-0.091339 0.145996,-0.13623z" stroke-width="1px" stroke="#000000" fill-rule="evenodd" fill="#000000" id="path2423"/>
   <path d="m312.881012,290.938995c-50.561005,-17.45401 -76.521011,-17.88501 -95.505005,-13.945984c28.396988,5.865997 60.177002,14.953979 94.996979,28.293976l0.026001,0.098022c-37.529999,-12.957001 -71.307983,-21.583008 -101.003983,-26.970001c-9.807007,2.628998 -18.046005,6.179993 -27.734009,8.493988c-81.172394,30.136017 -128.548695,13.731018 -122.795593,4.878998c-6.160301,-14.317993 51.294601,-35.994995 154.047592,-15.291992c19.230011,-5.01001 45.70401,-5.627991 97.968018,14.394012l0,0.048981zm-103.427017,-12.869995c-95.524994,-16.977997 -148.316391,-0.299988 -147.946594,12.96701c0.046295,-0.044006 0.095901,-0.08902 0.145401,-0.132996c-0.049103,0.05899 -0.073303,0.119995 -0.1166,0.178986c0.0439,1.19101 0.493698,2.350006 1.403496,3.458984c-0.864296,-0.769989 -1.509399,-1.574982 -1.930801,-2.40799c-2.017494,8.549011 42.808601,21.369995 122.653107,-5.269989c8.828995,-2.21701 16.587997,-5.872009 25.791992,-8.794006l0,0zm-146.514297,16.471985c0.097107,0.086029 0.186005,0.172028 0.2883,0.257019l-0.000496,0.097992c-0.106804,-0.117004 -0.190804,-0.237 -0.287804,-0.355011zm-1.286896,-3.63797c0.050598,-0.060028 0.089798,-0.122009 0.145699,-0.182007l-0.000298,0.04599c-0.054199,0.044006 -0.093803,0.091003 -0.145401,0.136017z" stroke-width="1px" stroke="#000000" fill-rule="evenodd" fill="#000000" id="path2425"/>
  </g>
 </g>
</svg>